<svg width="428" height="69" viewBox="0 0 428 69" fill="none" xmlns="http://www.w3.org/2000/svg">
<path d="M44.152 21.344H35.896V19.232C35.896 14.688 34.84 11.04 32.728 8.288C30.68 5.536 27.608 4.16 23.512 4.16C19.48 4.16 16.408 5.536 14.296 8.288C12.248 11.04 11.224 14.688 11.224 19.232V30.752H36.568V35.264H11.224V50.528C11.224 55.072 12.248 58.72 14.296 61.472C16.408 64.224 19.48 65.6 23.512 65.6C27.608 65.6 30.68 64.224 32.728 61.472C34.84 58.72 35.896 55.072 35.896 50.528V48.416H44.152V49.376C44.152 52.832 43.48 55.904 42.136 58.592C40.792 61.216 39.032 63.264 36.856 64.736C32.632 67.552 28.216 68.96 23.608 68.96C16.632 68.96 11.064 66.56 6.904 61.76C2.808 56.96 0.76 50.912 0.76 43.616V26.144C0.76 18.848 2.808 12.8 6.904 8C11.064 3.2 16.632 0.799995 23.608 0.799995C29.048 0.799995 33.816 2.496 37.912 5.888C42.072 9.28 44.152 14.016 44.152 20.096V21.344ZM81.3408 22.88L69.4368 68H61.0848L49.9488 22.88H58.2048L67.9008 62.048L78.2688 22.88H81.3408ZM116.949 60.896C116.949 63.072 117.653 64.16 119.061 64.16C120.469 64.16 121.493 63.136 122.133 61.088L123.957 61.376C123.957 61.888 123.765 62.688 123.381 63.776C123.061 64.8 122.645 65.664 122.133 66.368C121.685 67.008 120.949 67.584 119.925 68.096C118.901 68.672 117.749 68.96 116.469 68.96C111.989 68.96 109.429 66.592 108.789 61.856C106.933 66.592 103.733 68.96 99.1885 68.96C95.3485 68.96 92.2765 67.584 89.9725 64.832C87.7325 62.08 86.6125 58.368 86.6125 53.696V37.088C86.6125 32.48 87.7325 28.8 89.9725 26.048C92.2765 23.296 95.5085 21.92 99.6685 21.92C103.829 21.92 106.805 24.096 108.597 28.448V22.88H116.949V60.896ZM108.597 54.848V35.936C108.597 32.992 107.893 30.4 106.484 28.16C105.077 25.92 103.125 24.8 100.629 24.8C96.8525 24.8 94.9645 27.808 94.9645 33.824V56.96C94.9645 62.912 96.8205 65.888 100.533 65.888C103.157 65.888 105.141 64.832 106.484 62.72C107.893 60.544 108.597 57.92 108.597 54.848ZM162.677 64.16C163.893 64.16 164.885 63.136 165.653 61.088L167.477 61.376C167.477 61.888 167.285 62.688 166.901 63.776C166.581 64.8 166.165 65.664 165.653 66.368C165.205 67.008 164.469 67.584 163.445 68.096C162.485 68.672 161.365 68.96 160.085 68.96C154.773 68.96 152.117 65.792 152.117 59.456V33.824C152.117 27.808 150.229 24.8 146.453 24.8C143.957 24.8 142.005 25.92 140.597 28.16C139.189 30.4 138.485 32.992 138.485 35.936V68H130.229V22.88H138.485V28.448C140.341 24.096 143.349 21.92 147.509 21.92C151.669 21.92 154.869 23.296 157.109 26.048C159.349 28.736 160.469 32.416 160.469 37.088V60.896C160.469 63.072 161.205 64.16 162.677 64.16ZM203.105 60.896C203.105 63.072 203.809 64.16 205.217 64.16C206.625 64.16 207.649 63.136 208.289 61.088L210.113 61.376C210.113 61.888 209.921 62.688 209.537 63.776C209.217 64.8 208.801 65.664 208.289 66.368C207.841 67.008 207.105 67.584 206.081 68.096C205.057 68.672 203.905 68.96 202.625 68.96C198.145 68.96 195.585 66.592 194.945 61.856C193.089 66.592 189.889 68.96 185.345 68.96C181.505 68.96 178.433 67.584 176.129 64.832C173.889 62.08 172.769 58.368 172.769 53.696V37.088C172.769 32.48 173.889 28.8 176.129 26.048C178.433 23.296 181.665 21.92 185.825 21.92C189.985 21.92 192.961 24.096 194.753 28.448V22.88H203.105V60.896ZM194.753 54.848V35.936C194.753 32.992 194.049 30.4 192.641 28.16C191.233 25.92 189.281 24.8 186.785 24.8C183.009 24.8 181.121 27.808 181.121 33.824V56.96C181.121 62.912 182.977 65.888 186.689 65.888C189.313 65.888 191.297 64.832 192.641 62.72C194.049 60.544 194.753 57.92 194.753 54.848ZM259.585 68H249.217V51.776C249.217 41.792 244.641 36.8 235.489 36.8C234.529 36.8 233.697 36.832 232.993 36.896V34.496C236.577 34.496 239.937 33.504 243.073 31.52C244.737 30.432 246.081 28.8 247.105 26.624C248.129 24.384 248.641 21.728 248.641 18.656C248.641 13.792 247.361 10.304 244.801 8.192C242.305 6.016 238.369 4.928 232.993 4.928H227.713V68H217.345V1.75999H236.065C251.041 1.75999 258.529 7.456 258.529 18.848C258.529 26.784 253.377 32.32 243.073 35.456C254.081 37.696 259.585 44.224 259.585 55.04V68ZM296.412 38.144V45.728H277.212V56.672C277.212 62.944 279.772 66.08 284.892 66.08C287.644 66.08 289.724 64.96 291.132 62.72C292.604 60.48 293.34 58.56 293.34 56.96H295.452C295.452 60.672 293.948 63.84 290.94 66.464C289.02 68.128 286.588 68.96 283.644 68.96C278.588 68.96 274.876 67.456 272.508 64.448C270.14 61.44 268.956 57.6 268.956 52.928V37.856C268.956 33.184 270.236 29.376 272.796 26.432C275.356 23.424 278.972 21.92 283.644 21.92C288.316 21.92 291.612 23.456 293.532 26.528C295.452 29.6 296.412 33.472 296.412 38.144ZM290.94 42.848V34.112C290.94 27.904 288.7 24.8 284.22 24.8C279.548 24.8 277.212 27.904 277.212 34.112V42.848H290.94ZM335.855 60.896C335.855 63.072 336.559 64.16 337.967 64.16C339.375 64.16 340.399 63.136 341.039 61.088L342.863 61.376C342.863 61.888 342.671 62.688 342.287 63.776C341.967 64.8 341.551 65.664 341.039 66.368C340.591 67.008 339.855 67.584 338.831 68.096C337.807 68.672 336.655 68.96 335.375 68.96C330.895 68.96 328.335 66.592 327.695 61.856C325.839 66.592 322.639 68.96 318.095 68.96C314.255 68.96 311.183 67.584 308.879 64.832C306.639 62.08 305.519 58.368 305.519 53.696V37.088C305.519 32.48 306.639 28.8 308.879 26.048C311.183 23.296 314.415 21.92 318.575 21.92C322.735 21.92 325.711 24.096 327.503 28.448V22.88H335.855V60.896ZM327.503 54.848V35.936C327.503 32.992 326.799 30.4 325.391 28.16C323.983 25.92 322.031 24.8 319.535 24.8C315.759 24.8 313.871 27.808 313.871 33.824V56.96C313.871 62.912 315.727 65.888 319.439 65.888C322.063 65.888 324.047 64.832 325.391 62.72C326.799 60.544 327.503 57.92 327.503 54.848ZM356.911 68.96C351.727 68.96 349.135 65.792 349.135 59.456V1.75999H357.391V60.896C357.391 63.072 358.095 64.16 359.503 64.16C360.207 64.16 360.815 63.904 361.327 63.392C361.839 62.88 362.287 62.112 362.671 61.088L364.495 61.376C364.495 61.888 364.303 62.688 363.919 63.776C363.599 64.8 363.183 65.632 362.671 66.272C361.327 68.064 359.407 68.96 356.911 68.96ZM382.122 64.16C383.338 64.16 384.33 63.136 385.098 61.088L386.922 61.376C386.922 61.952 386.73 62.752 386.346 63.776C385.962 64.8 385.514 65.664 385.002 66.368C384.554 67.008 383.818 67.584 382.794 68.096C381.834 68.672 380.714 68.96 379.434 68.96C374.186 68.96 371.562 65.792 371.562 59.456V25.664H367.338V22.88H371.562V6.56H379.914V22.88H386.826V25.664H379.914V61.088C379.914 63.136 380.65 64.16 382.122 64.16ZM427.329 27.296C427.329 30.88 426.049 34.016 423.489 36.704C420.993 39.392 417.697 41.088 413.601 41.792V68H405.345V41.792C401.313 41.088 398.017 39.392 395.457 36.704C392.961 34.016 391.713 30.88 391.713 27.296V22.88H399.297V30.752C399.297 33.312 400.225 35.456 402.081 37.184C404.001 38.848 406.465 39.68 409.473 39.68C412.481 39.68 414.944 38.816 416.865 37.088C418.785 35.36 419.745 33.248 419.745 30.752V22.88H427.329V27.296Z" fill="black"/>
</svg>
