<svg width="136" height="160" viewBox="0 0 136 160" fill="none" xmlns="http://www.w3.org/2000/svg">
<rect width="136" height="160" fill="#4597B8"/>
<path d="M24.448 130.304C16.6827 130.304 10.7947 128.171 6.784 123.904C2.85867 119.637 0.896 114.261 0.896 107.776C0.896 103.168 1.83467 98.56 3.712 93.952C5.67467 89.2587 8.448 85.1627 12.032 81.664C15.616 78.1653 19.7973 75.8187 24.576 74.624C21.9307 72.7467 19.968 70.4853 18.688 67.84C17.408 65.1093 16.768 62.2507 16.768 59.264C16.768 54.8267 17.9627 50.4747 20.352 46.208C22.8267 41.9413 26.1973 38.4853 30.464 35.84C34.816 33.1093 39.5947 31.744 44.8 31.744C50.176 31.744 54.5707 33.152 57.984 35.968C61.3973 38.784 63.104 42.7093 63.104 47.744C63.104 51.4987 62.1653 54.656 60.288 57.216C58.4107 59.776 56.192 61.056 53.632 61.056C51.328 61.056 49.3227 59.904 47.616 57.6C49.152 57.088 50.4747 55.68 51.584 53.376C52.6933 51.072 53.248 48.768 53.248 46.464C53.248 43.9893 52.5653 42.1973 51.2 41.088C49.8347 39.8933 48.1707 39.296 46.208 39.296C43.7333 39.296 41.472 40.192 39.424 41.984C37.4613 43.6907 35.9253 45.952 34.816 48.768C33.7067 51.4987 33.152 54.3573 33.152 57.344C33.152 61.44 34.2187 65.0667 36.352 68.224C38.4853 71.296 41.728 73.3867 46.08 74.496C41.728 75.4347 37.8027 77.568 34.304 80.896C30.8053 84.224 28.0747 88.1067 26.112 92.544C24.1493 96.896 23.168 101.077 23.168 105.088C23.168 108.928 24.1493 112.043 26.112 114.432C28.16 116.821 31.232 118.016 35.328 118.016C39.5947 118.016 44.032 116.864 48.64 114.56C53.3333 112.171 56.7893 108.971 59.008 104.96L61.952 106.24C58.624 113.579 53.504 119.424 46.592 123.776C39.68 128.128 32.2987 130.304 24.448 130.304ZM114.558 130.176C107.902 130.176 104.574 127.317 104.574 121.6C104.574 119.723 104.83 117.589 105.342 115.2C105.939 112.725 106.75 109.568 107.774 105.728C108.969 101.717 109.865 98.304 110.462 95.488C111.059 92.672 111.358 90.1547 111.358 87.936C111.358 82.1333 108.798 79.232 103.678 79.232C102.313 79.232 100.905 79.4027 99.454 79.744L89.214 128H70.782L88.19 46.592L107.134 44.032L100.862 73.6H101.886C105.214 73.6 108.286 72.448 111.102 70.144C113.918 67.84 116.094 64.9813 117.63 61.568C119.251 58.0693 120.062 54.656 120.062 51.328C120.062 47.4027 118.867 44.2027 116.478 41.728C114.174 39.168 110.675 37.888 105.982 37.888C99.07 37.888 93.0113 39.1253 87.806 41.6C82.6007 44.0747 78.5473 47.6587 75.646 52.352C72.83 57.0453 71.422 62.592 71.422 68.992C71.422 72.1493 71.7207 74.368 72.318 75.648C72.9153 76.8427 73.214 77.5253 73.214 77.696C68.606 77.696 65.15 76.7573 62.846 74.88C60.6273 72.9173 59.518 69.7173 59.518 65.28C59.518 59.8187 61.7367 54.528 66.174 49.408C70.6967 44.2027 76.4567 40.0213 83.454 36.864C90.4513 33.6213 97.4487 32 104.446 32C110.846 32 116.222 32.9387 120.574 34.816C124.926 36.6933 128.169 39.2107 130.302 42.368C132.435 45.44 133.502 48.8107 133.502 52.48C133.502 56.4907 132.265 60.5013 129.79 64.512C127.315 68.5227 123.945 71.808 119.678 74.368C122.921 75.3067 125.182 76.8853 126.462 79.104C127.827 81.2373 128.51 83.9253 128.51 87.168C128.51 89.6427 128.211 92.288 127.614 95.104C127.017 97.8347 126.163 101.248 125.054 105.344C124.371 107.989 123.731 110.592 123.134 113.152C122.537 115.712 122.238 117.845 122.238 119.552C122.238 121.515 122.665 123.264 123.518 124.8C124.457 126.336 125.694 127.403 127.23 128C122.025 129.451 117.801 130.176 114.558 130.176Z" fill="black"/>
</svg>
